# xmcd
#
# Track frame offsets:
#	152
#	15182
#	31143
#	46217
#	58343
#	74664
#	91657
#	107740
#	121292
#	140407
#	155258
#
# Disc length: 2265 seconds
#
# Revision: 1
# Processed by: cddbd v1.5.1PL0 Copyright (c) Steve Scherf et al.
# Submitted via: audiograbber 1.83.01
#
DISCID=8808d70b
DTITLE=Bill ANDERSON - Gospel Favorites
DYEAR=2004
DGENRE=Gospel
TTITLE0=Will the circle be unbroken
TTITLE1=Softly and tenderly
TTITLE2=The old rugged cross
TTITLE3=I saw the light
TTITLE4=I can do nothing alone
TTITLE5=Life's railway to heaven
TTITLE6=Sweet hour of prayer
TTITLE7=Where could I go (but to the Lord)
TTITLE8=Farther along
TTITLE9=Somebody touched me -This little light of mine - Do Lord
TTITLE10=Love lifted me
EXTD=
EXTT0=
EXTT1=
EXTT2=
EXTT3=
EXTT4=
EXTT5=
EXTT6=
EXTT7=
EXTT8=
EXTT9=
EXTT10=
PLAYORDER=
